<?xml version="1.0" standalone="no"?>
<!DOCTYPE svg PUBLIC "-//W3C//DTD SVG 1.1//EN" "http://www.w3.org/Graphics/SVG/1.1/DTD/svg11.dtd" >
<svg xmlns="http://www.w3.org/2000/svg">
<defs>
  <font id="picons-bold" horiz-adv-x="1000">
    <font-face font-family="picons-bold"
      units-per-em="1000" ascent="1000"
      descent="0" />
    <missing-glyph horiz-adv-x="0" />
    <glyph glyph-name="angle"
      unicode="&#xEA01;"
      horiz-adv-x="1000" d="M390.625 812.5L703.125 500L703.125 500L390.625 187.5L302.34375 275.9375L526.379396875 500L302.34375 724.21875z" />
    <glyph glyph-name="arrow"
      unicode="&#xEA02;"
      horiz-adv-x="1000" d="M414.84375 721.09375L503.1250000000001 809.375L812.5 500L503.1250000000001 190.625L414.84375 279.0625L573.125 437.5L187.5 437.5L187.5 562.5L573.28125 562.5z" />
    <glyph glyph-name="bars"
      unicode="&#xEA03;"
      horiz-adv-x="1000" d="M1000 250L1000 125L0 125L0 250L1000 250zM1000 562.5L1000 437.5L0 437.5L0 562.5L1000 562.5zM1000 875L1000 750L0 750L0 875L1000 875z" />
    <glyph glyph-name="book"
      unicode="&#xEA04;"
      horiz-adv-x="1000" d="M875 1000L875 0L296.875 0C201.875 0 125 76.875 125 171.875L125 828.125C125 923.125 201.875 1000 296.875 1000L875 1000zM750 218.75L296.875 218.75C271.875 218.75 250 197.8125 250 171.875C250 145.9375 270.625 125 296.875 125L750 125L750 218.75zM750 875L296.875 875C271.875 875 250 854.6875 250 828.125L250 337.34375C264.84375 341.5625 281.25 343.75 296.875 343.75L750 343.75L750 875zM656.25 781.25L656.25 656.25L343.75 656.25L343.75 781.25L656.25 781.25z" />
    <glyph glyph-name="calendar"
      unicode="&#xEA05;"
      horiz-adv-x="1000" d="M343.75 1000L343.75 875L656.25 875L656.25 1000L781.25 1000L781.25 875L937.5 875L937.5 0L62.5 0L62.5 875L218.75 875L218.75 1000L343.75 1000zM812.5 515.625L187.5 515.625L187.5 125L812.5 125L812.5 515.625zM812.5 750L187.5 750L187.5 640.625L812.5 640.625L812.5 750z" />
    <glyph glyph-name="chair"
      unicode="&#xEA06;"
      horiz-adv-x="1000" d="M671.875 1000C758.125 1000 828.125 930 828.125 843.75L828.125 421.875C859.53125 410.46875 886.875 396.5625 910.3125 380.625C927.34375 368.90625 937.5 349.6875 937.5 329.0625L937.5 250L875 250L875 0L750 0L750 250L250 250L250 0L125 0L125 250L62.5 250L62.5 330.9375C62.5 350.625 71.875 369.21875 87.65625 381.09375C110.9375 398.28125 138.90625 412.96875 171.875 425L171.875 843.75C171.875 930 241.875 1000 328.125 1000L671.875 1000zM562.5 875L562.5 467.34375C613.75 465.3125 660.625 460.78125 703.125 453.90625L703.125 843.75C703.125 860.15625 689.375 875 671.875 875L562.5 875zM437.5 875L328.125 875C311.71875 875 296.875 862.03125 296.875 843.75L296.875 455.78125C339.21875 462.1875 386.09375 466.25 437.5 467.8125L437.5 875z" />
    <glyph glyph-name="check"
      unicode="&#xEA07;"
      horiz-adv-x="1000" d="M937.5 750L375 187.5L62.5 500L150.9375 588.4375L375 364.21875L849.0625 838.4375z" />
    <glyph glyph-name="chevron"
      unicode="&#xEA08;"
      horiz-adv-x="1000" d="M328.125 937.5L765.625 500L765.625 500L328.125 62.5L239.6875 150.9375L588.859375 500L239.84375 849.0625z" />
    <glyph glyph-name="circle"
      unicode="&#xEA09;"
      horiz-adv-x="1000" d="M500 937.5C741.609375 937.5 937.5 741.625 937.5 500C937.5 258.390625 741.609375 62.5 500 62.5C258.375 62.5 62.5 258.390625 62.5 500C62.5 741.625 258.375 937.5 500 937.5zM500 812.5C327.40625 812.5 187.5 672.59375 187.5 500C187.5 327.421875 327.40625 187.5 500 187.5C672.578125 187.5 812.5 327.421875 812.5 500C812.5 672.59375 672.578125 812.5 500 812.5z" />
    <glyph glyph-name="clock"
      unicode="&#xEA0A;"
      horiz-adv-x="1000" d="M500 968.75C758.75 968.75 968.75 758.75 968.75 500C968.75 241.25 758.75 31.25 500 31.25C241.25 31.25 31.25 241.25 31.25 500C31.25 758.75 241.25 968.75 500 968.75zM500 843.75C310.3125 843.75 156.25 689.6875 156.25 500C156.25 310.3125 310.3125 156.25 500 156.25C689.6875 156.25 843.75 310.3125 843.75 500C843.75 689.6875 689.6875 843.75 500 843.75zM546.875 750C554.84375 750 562.5 743.59375 562.5 734.375L562.5 508.59375L682.1875 452.8125C689.53125 449.375 693.59375 440.3125 689.6875 432.03125L650.15625 347.03125C646.71875 339.6875 637.8125 335.625 629.375 339.53125L471.09375 413.4375C451.09375 423.75 437.5 444.6875 437.5 468.75L437.5 734.375C437.5 742.34375 444.0625 750 453.125 750L546.875 750z" />
    <glyph glyph-name="cog"
      unicode="&#xEA0B;"
      horiz-adv-x="984.6153846153846" d="M579.8307692307692 1000C609.3846153846154 1000 634.7538461538462 979.0153846153846 640.2923076923078 949.9846153846154L658.4461538461538 854.6461538461538C676.3076923076924 846.1538461538462 693.4153846153847 836.1538461538462 709.6153846153846 825.0307692307692L801.3384615384616 857C829.2307692307693 866.7230769230769 860.1076923076923 855.2461538461539 874.876923076923 829.6615384615385L962.4153846153848 678.0461538461539C977.2 652.4615384615385 971.6923076923076 619.9846153846154 949.323076923077 600.676923076923L875.8307692307693 537.2615384615385C876.5846153846154 527.5076923076923 876.9538461538463 517.6461538461538 876.9538461538463 507.6923076923077C876.9538461538463 497.7538461538462 876.5846153846154 487.8923076923077 875.8307692307693 478.1384615384616L949.323076923077 414.723076923077C971.6923076923076 395.4153846153846 977.2 362.9384615384615 962.4153846153848 337.3538461538461L874.876923076923 185.7384615384615C860.1076923076923 160.1538461538461 829.2307692307693 148.6769230769231 801.3384615384616 158.4L709.6153846153846 190.3692307692308C693.4153846153847 179.2461538461539 676.3076923076924 169.3384615384615 658.4461538461538 160.7538461538461L640.2923076923078 65.4153846153846C634.7538461538462 36.3846153846154 609.3846153846154 15.3846153846154 579.8307692307692 15.3846153846154L404.7692307692308 15.3846153846154C375.2153846153846 15.3846153846154 349.8461538461538 36.3846153846154 344.3076923076923 65.4153846153846L326.1384615384616 160.8C308.3076923076923 169.3692307692308 291.2307692307693 179.276923076923 275.0461538461539 190.3846153846154L183.2615384615385 158.4C155.3692307692308 148.6769230769231 124.4923076923077 160.1538461538461 109.7230769230769 185.7384615384615L22.1846153846154 337.3538461538461C7.4 362.9384615384615 12.9076923076923 395.4153846153846 35.2769230769231 414.723076923077L108.8461538461539 478.1999999999999C108.1076923076923 487.9384615384615 107.6923076923077 497.7692307692307 107.6923076923077 507.6923076923077C107.6923076923077 517.6307692307691 108.1076923076923 527.4615384615385 108.8461538461539 537.2L35.2769230769231 600.676923076923C12.9076923076923 619.9846153846154 7.4 652.4615384615385 22.1846153846154 678.0461538461539L109.7230769230769 829.6615384615385C124.4923076923077 855.2461538461539 155.3692307692308 866.7230769230769 183.2615384615385 857L275.0461538461539 825.0153846153846C291.2307692307693 836.123076923077 308.3076923076923 846.0307692307692 326.1384615384616 854.6L344.3076923076923 949.9846153846154C349.8461538461538 979.0153846153846 375.2153846153846 1000 404.7692307692308 1000L579.8307692307692 1000zM528.9076923076923 876.9230769230769L455.6923076923077 876.9230769230769L433.9230769230769 762.676923076923C384.123076923077 751.2923076923076 339.7230769230769 725.6923076923077 305.2307692307693 690.3692307692307L300.7846153846154 685.7076923076922L190.8307692307692 724.0153846153846L154.2307692307692 660.5999999999999L242.3076923076923 584.6153846153845C234.8307692307692 560.2923076923078 230.7692307692308 534.4615384615385 230.7692307692308 507.6923076923077C230.7692307692308 483.6153846153846 234.0615384615385 460.2923076923076 240.1692307692308 438.123076923077L242.3076923076923 430.7692307692307L154.2307692307692 354.8L190.8307692307692 291.3846153846154L300.7846153846154 329.6923076923076C334.4153846153846 293.5384615384616 378.1384615384616 266.8923076923077 427.4461538461539 254.2923076923078L433.9230769230769 252.7230769230769L455.6923076923077 138.4615384615385L528.9076923076923 138.4615384615385L550.676923076923 252.7076923076924C600.4923076923077 264.0615384615385 644.9076923076923 289.6769230769231 679.4153846153846 325L683.8615384615385 329.6615384615384L793.7538461538462 291.3692307692308L830.3692307692307 354.7846153846154L742.3538461538461 430.7692307692307C749.8461538461539 455.0615384615385 753.8461538461538 480.9230769230769 753.8461538461538 507.6923076923077C753.8461538461538 531.8 750.6153846153846 555.1538461538462 744.4923076923078 577.3230769230769L742.3538461538461 584.6153846153845L830.3692307692307 660.6153846153846L793.7538461538462 724.0307692307692L683.8615384615385 685.7384615384615C650.2153846153847 721.9076923076923 606.4615384615385 748.5384615384615 557.123076923077 761.1384615384616L550.6615384615385 762.7076923076922L528.9076923076923 876.9230769230769zM492.3076923076923 615.3846153846154C551.7846153846154 615.3846153846154 600 567.1384615384616 600 507.6923076923077C600 448.2615384615384 551.7846153846154 400 492.3076923076923 400C432.9076923076923 400 384.6153846153847 448.2615384615384 384.6153846153847 507.6923076923077C384.6153846153847 567.1384615384616 432.9076923076923 615.3846153846154 492.3076923076923 615.3846153846154z" />
    <glyph glyph-name="database"
      unicode="&#xEA0C;"
      horiz-adv-x="1000" d="M500 1000C738.765625 1000 875 912.609375 875 804.6875C875 732.75 875 529.625 875 195.3125C875 100.78125 750 0 500 0C250 0 125 100.78125 125 195.3125C125 531.25 125 734.375 125 804.6875C125 910.25 261.21875 1000 500 1000zM500 203.125C361.96875 203.125 273.484375 239.59375 250 250C250 225.90625 250 208.0625 250 196.484375C265.0625 169.234375 356.15625 125 500 125C643.828125 125 734.703125 167.796875 750 196.5C750 212.625 750 230.09375 750 248.890625C726.515625 238.46875 638.015625 203.125 500 203.125zM500 406.25C361.96875 406.25 273.484375 442.71875 250 453.125C250 429.03125 250 411.1875 250 399.609375C265.0625 372.359375 356.15625 328.125 500 328.125C643.828125 328.125 734.703125 370.921875 750 399.625C750 415.75 750 433.21875 750 452.015625C726.515625 441.59375 638.015625 406.25 500 406.25zM500 609.375C361.96875 609.375 273.484375 645.84375 250 656.25C250 632.15625 250 614.3125 250 602.734375C265.0625 575.484375 356.15625 531.25 500 531.25C643.828125 531.25 734.703125 574.046875 750 602.75C749.859375 618.875 749.859375 636.34375 750.015625 655.140625C726.515625 644.71875 638.015625 609.375 500 609.375zM500 875C318.109375 875 250 814.9375 250 804.6875C250 794.453125 318.109375 734.375 500 734.375C681.875 734.375 750 794.59375 750 804.6875C750 814.796875 681.875 875 500 875z" />
    <glyph glyph-name="diamond"
      unicode="&#xEA0D;"
      horiz-adv-x="1000" d="M500 968.75L968.75 500L500 31.25L31.25 500L500 968.75zM500 791.984375L208.015625 500L500 208.015625L791.984375 500L500 791.984375z" />
    <glyph glyph-name="external"
      unicode="&#xEA0E;"
      horiz-adv-x="1000" d="M500 875L500 750L250 750L250 250L750 250L750 500L875 500L875 125L125 125L125 875L500 875zM1000 1000L1000 625L875 625L875 765.625L880.953125 792.1875L466.048640625 377.6603015625L377.701359375 466.0896984375L793.015625 881.03125L765.625 875L625 875L625 1000L1000 1000z" />
    <glyph glyph-name="file_text"
      unicode="&#xEA0F;"
      horiz-adv-x="1000" d="M875 1000L875 0L125 0L125 1000L875 1000zM750 875L250 875L250 125L750 125L750 875zM515.8359375 421.875L515.8359375 296.875L328.125 296.875L328.125 421.875L515.8359375 421.875zM671.875 609.375L671.875 484.375L328.125 484.375L328.125 609.375L671.875 609.375zM671.875 796.875L671.875 671.875L328.125 671.875L328.125 796.875L671.875 796.875z" />
    <glyph glyph-name="funnel"
      unicode="&#xEA10;"
      horiz-adv-x="1000" d="M1000 1000L1000 839.0625L671.875 512.5L671.875 153.125L328.125 0L328.125 510.9375L0 839.0625L0 1000L1000 1000zM859.375 875L140.625 875L453.125 562.5L453.125 192.53125L546.875 234.375L546.875 564.453125L859.375 875z" />
    <glyph glyph-name="hand"
      unicode="&#xEA11;"
      horiz-adv-x="1000" d="M468.75 968.75C639.6875 968.75 671.875 843.75 637.8125 749.53125L625 718.75L843.75 718.75C910.3125 718.75 1000 662.96875 1000 562.5C1000 463.75 910.78125 406.25 843.75 406.25L734.375 406.25L690.46875 165.15625C680 107.03125 630 62.5 567.5 62.5L0 62.5L0 718.75L218.75 718.75L468.75 968.75zM513.90625 837.03125C504.6874999999999 828.125 437.5 760.9375 312.5 635.78125L312.5 187.5L567.5 187.5L630 531.25L843.75 531.25C857.5 531.25 875 545 875 562.5C875 580 857.5 593.75 843.75 593.75L408.75 593.75C472.03125 703.75 507.34375 765.15625 514.6875 777.8125C525.78125 796.875 531.71875 832.5 513.90625 837.03125zM187.5 593.75L125 593.75L125 187.5L187.5 187.5L187.5 593.75z" />
    <glyph glyph-name="home"
      unicode="&#xEA12;"
      horiz-adv-x="1000" d="M500 971.765625L992.96875 563.78125L913.265625 467.484375L875 499.1875L875 62.5L125 62.5L125 499.1875L86.71875 467.484375L7.015625 563.78125L500 971.765625zM500 809.5L250 602.625L250 187.5L406.25 187.5L406.25 437.5L593.75 437.5L593.75 187.5L750 187.5L750 602.625L500 809.5z" />
    <glyph glyph-name="lock"
      unicode="&#xEA13;"
      horiz-adv-x="1000" d="M500 1000C660.8125 1000 796.875 863.578125 796.875 703.125L796.875 531.25L875 531.25L875 0L125 0L125 531.25L671.875 531.25L671.875 703.125C671.875 795.296875 593.171875 875 500 875C406.65625 875 328.125 799.6875 328.125 703.125L328.125 671.875L203.125 671.875L203.125 703.125C203.125 867 336.125 1000 500 1000zM750 406.25L250 406.25L250 125L750 125L750 406.25z" />
    <glyph glyph-name="map_pin"
      unicode="&#xEA14;"
      horiz-adv-x="1000" d="M500 1000C715.734375 1000 890.625 825.125 890.625 609.375C890.625 406.25 753.125 290.625 500 0C246.875 290.625 109.375 406.25 109.375 609.375C109.375 825.125 284.25 1000 500 1000zM500 875C353.296875 875 234.375 756.078125 234.375 609.375C234.375 476.046875 322.9375 394.046875 500 189.84375C683.59375 396.875 765.625 476.046875 765.625 609.375C765.625 756.078125 646.6875 875 500 875zM500 718.75C560.359375 718.75 609.375 669.75 609.375 609.375C609.375 549.015625 560.359375 500 500 500C439.625 500 390.625 549.015625 390.625 609.375C390.625 669.75 439.625 718.75 500 718.75z" />
    <glyph glyph-name="minus"
      unicode="&#xEA15;"
      horiz-adv-x="1000" d="M187.5 562.5L812.5 562.5L812.5 437.5L187.5 437.5z" />
    <glyph glyph-name="mute"
      unicode="&#xEA16;"
      horiz-adv-x="1000" d="M500 875L500 125L406.25 125L203.125 312.5L0 312.5L0 687.5L203.125 687.5L406.25 875L500 875zM911.734375 687.5L1000.0156250000002 599.21875L900.96875 500.078125L1000.0156250000002 400.9375L911.734375 312.5L812.5 411.796875L713.28125 312.5L625 400.9375L724.03125 500.078125L625 599.21875L713.28125 687.5L812.5 588.359375L911.734375 687.5zM375 676.046875L251.984375 562.5L125 562.5L125 437.5L251.984375 437.5L375 323.96875L375 676.046875z" />
    <glyph glyph-name="pause"
      unicode="&#xEA17;"
      horiz-adv-x="1000" d="M281.25 812.5H406.25V187.5H281.25V812.5zM593.75 812.5H718.75V187.5H593.75V812.5z" />
    <glyph glyph-name="play"
      unicode="&#xEA18;"
      horiz-adv-x="1000" d="M767.3611109375 500L281.25 187.5L281.25 812.5z" />
    <glyph glyph-name="plus"
      unicode="&#xEA19;"
      horiz-adv-x="1000" d="M562.5 796.875L562.5 562.5L812.5 562.5L812.5 437.5L562.5 437.5L562.5 171.875L437.5 171.875L437.5 437.5L187.5 437.5L187.5 562.5L437.5 562.5L437.5 796.875z" />
    <glyph glyph-name="search"
      unicode="&#xEA1A;"
      horiz-adv-x="984.6153846153846" d="M400 969.2307692307692C603.7692307692307 969.2307692307692 769.2307692307693 803.7846153846153 769.2307692307693 600C769.2307692307693 520.3076923076924 743.9230769230769 446.4769230769231 700.9076923076923 386.1076923076924L953.846153846154 133.1692307692307L866.8307692307693 46.1538461538461L613.8923076923077 299.0923076923077C553.8461538461538 256.0769230769231 479.6923076923077 230.7692307692307 400 230.7692307692307C196.2153846153846 230.7692307692307 30.7692307692308 396.2307692307693 30.7692307692308 600C30.7692307692308 803.7846153846153 196.2153846153846 969.2307692307692 400 969.2307692307692zM400 846.1538461538462C264.1846153846155 846.1538461538462 153.8461538461539 735.8153846153846 153.8461538461539 600C153.8461538461539 464.2 264.1846153846155 353.8461538461538 400 353.8461538461538C535.8 353.8461538461538 646.1538461538462 464.2 646.1538461538462 600C646.1538461538462 735.8153846153846 535.8 846.1538461538462 400 846.1538461538462z" />
    <glyph glyph-name="sort"
      unicode="&#xEA1B;"
      horiz-adv-x="1000" d="M724.0625 432.1875L812.5 343.75L500 31.25L187.5 343.75L275.9375 432.1875L500 208.046875L724.0625 432.1875zM500 968.75L812.5 656.25L724.0625 567.8125L500 791.96875L275.9375 567.8125L187.5 656.25L500 968.75z" />
    <glyph glyph-name="sound"
      unicode="&#xEA1C;"
      horiz-adv-x="1000" d="M500 875L500 125L406.25 125L203.125 312.5L0 312.5L0 687.5L203.125 687.5L406.25 875L500 875zM831.46875 831.453125C916.28125 746.625 968.75 629.4375 968.75 500C968.75 370.5625 916.28125 253.375 831.453125 168.546875L743.0625 256.9375C805.265625 319.140625 843.75 405.078125 843.75 500C843.75 594.921875 805.265625 680.859375 743.078125 743.0625L831.46875 831.453125zM676.765625 676.78125C722.015625 631.546875 750 569.046875 750 500C750 430.984375 722.015625 368.484375 676.78125 323.25L588.375 411.625C611 434.234375 625 465.484375 625 500C625 534.53125 611 565.78125 588.375 588.390625L676.765625 676.78125zM375 676.046875L251.984375 562.5L125 562.5L125 437.5L251.984375 437.5L375 323.96875L375 676.046875z" />
    <glyph glyph-name="star"
      unicode="&#xEA1D;"
      horiz-adv-x="1000" d="M500 1000L646.9375 702.265625L975.515625 654.515625L737.75 422.75L793.890625 95.5L500 250L206.09375 95.5L262.234375 422.75L24.46875 654.515625L353.046875 702.265625L500 1000zM563.9375 588.015625L500 717.5625L436.046875 588.015625L293.09375 567.234375L396.53125 466.390625L372.109375 324L500 391.234375L627.875 324L603.453125 466.390625L706.890625 567.234375L563.9375 588.015625z" />
    <glyph glyph-name="times"
      unicode="&#xEA1E;"
      horiz-adv-x="1000" d="M724.234375 812.5L812.5 724.21875L588.46875 500L812.5 275.9375L724.234375 187.5L500 411.796875L275.78125 187.5L187.5 275.9375L411.53125 500L187.5 724.21875L275.78125 812.5L500 588.359375z" />
    <glyph glyph-name="tool"
      unicode="&#xEA1F;"
      horiz-adv-x="1000" d="M863.96875 930.28125L651.765625 718.125L665.78125 665.78125L718.125 651.796875L930.265625 863.984375C1032.59375 729.265625 1022.2968750000002 536.078125 899.359375 413.140625C809.4375 323.21875 681.9375 293.5625 567.234375 324.15625L293.4375 50.3125C226.296875 -16.703125 117.375 -16.703125 50.296875 50.375C-16.765625 117.453125 -16.765625 226.375 50.296875 293.453125L324.140625 567.234375C293.546875 681.953125 323.203125 809.453125 413.125 899.375C536.0625 1022.296875 729.25 1032.65625 863.90625 930.3125zM647.8125 889.375C600.15625 884.0625 553.75 863.125 517.1875 826.5625C444.53125 753.90625 432.34375 639.53125 487.65625 553.90625L139.84375 206.09375C120 187.34375 120.46875 157.03125 138.75 138.75C156.25 121.25 186.09375 119.6875 205.3125 139.0625L553.90625 487.65625C638.59375 433.28125 752.5 443.125 826.5625 517.1875C863.125 553.75 884.0625 600.15625 889.375 647.8125L779.6875 538.125C764.6875 523.28125 743.28125 516.875 722.65625 521.25L598.59375 554.375C578.125 559.84375 561.875 575.3125 555.3125 595.15625L522.03125 719.375C516.5625 739.6875 521.71875 761.40625 535.78125 777.1875L647.8125 889.375z" />
    <glyph glyph-name="x"
      unicode="&#xEA20;"
      horiz-adv-x="1000" d="M849.0625 937.5L937.5 849.0625L588.4375 500L937.5 150.78125L849.0625 62.5L500 411.5625L150.9375 62.5L62.5 150.78125L411.5625 500L62.5 849.0625L150.9375 937.5L500 588.28125z" />
  </font>
</defs>
</svg>
