<?xml version="1.0" encoding="UTF-8"?>
<svg width="64px" height="64px" viewBox="0 0 64 64" version="1.1" xmlns="http://www.w3.org/2000/svg" xmlns:xlink="http://www.w3.org/1999/xlink">
    <!-- Generator: Sketch 47.1 (45422) - http://www.bohemiancoding.com/sketch -->
    <title>instagram</title>
    <desc>Created with Sketch.</desc>
    <defs></defs>
    <g id="Page-1" stroke="none" stroke-width="1" fill="none" fill-rule="evenodd">
        <g id="instagram" fill-rule="nonzero" fill="#000000">
            <path d="M32,2 C23.85,2 22.8325,2.0375 19.6325,2.18 C16.4375,2.33 14.2625,2.8325 12.35,3.575 C10.3775,4.34 8.7025,5.3675 7.035,7.035 C5.3675,8.7025 4.3375,10.375 3.575,12.35 C2.8325,14.2625 2.3275,16.4375 2.18,19.6325 C2.03,22.8325 2,23.85 2,32 C2,40.15 2.0375,41.1675 2.18,44.3675 C2.33,47.56 2.8325,49.7375 3.575,51.65 C4.34,53.62 5.3675,55.2975 7.035,56.965 C8.7025,58.63 10.375,59.6625 12.35,60.425 C14.265,61.165 16.44,61.6725 19.6325,61.82 C22.8325,61.97 23.85,62 32,62 C40.15,62 41.1675,61.9625 44.3675,61.82 C47.56,61.67 49.7375,61.165 51.65,60.425 C53.62,59.66 55.2975,58.63 56.965,56.965 C58.63,55.2975 59.6625,53.6275 60.425,51.65 C61.165,49.7375 61.6725,47.56 61.82,44.3675 C61.97,41.1675 62,40.15 62,32 C62,23.85 61.9625,22.8325 61.82,19.6325 C61.67,16.44 61.165,14.26 60.425,12.35 C59.66,10.3775 58.63,8.7025 56.965,7.035 C55.2975,5.3675 53.6275,4.3375 51.65,3.575 C49.7375,2.8325 47.56,2.3275 44.3675,2.18 C41.1675,2.03 40.15,2 32,2 Z M32,7.4 C40.0075,7.4 40.9625,7.44 44.125,7.5775 C47.05,7.715 48.6375,8.2 49.6925,8.615 C51.0975,9.1575 52.0925,9.8075 53.1475,10.855 C54.195,11.905 54.845,12.9025 55.3875,14.3075 C55.7975,15.3625 56.2875,16.95 56.42,19.875 C56.5625,23.04 56.595,23.99 56.595,32 C56.595,40.01 56.5575,40.9625 56.41,44.125 C56.2575,47.05 55.77,48.6375 55.3575,49.6925 C54.7975,51.0975 54.16,52.0925 53.11,53.1475 C52.0625,54.195 51.05,54.845 49.66,55.3875 C48.61,55.7975 46.9975,56.2875 44.0725,56.42 C40.8875,56.5625 39.95,56.595 31.925,56.595 C23.8975,56.595 22.96,56.5575 19.7775,56.41 C16.85,56.2575 15.2375,55.77 14.1875,55.3575 C12.765,54.7975 11.7875,54.16 10.74,53.11 C9.6875,52.0625 9.015,51.05 8.49,49.66 C8.0775,48.61 7.5925,46.9975 7.44,44.0725 C7.3275,40.9225 7.2875,39.95 7.2875,31.9625 C7.2875,23.9725 7.3275,22.9975 7.44,19.81 C7.5925,16.885 8.0775,15.275 8.49,14.225 C9.015,12.8 9.6875,11.825 10.74,10.7725 C11.7875,9.725 12.765,9.05 14.1875,8.5275 C15.2375,8.1125 16.815,7.625 19.74,7.475 C22.9275,7.3625 23.865,7.325 31.8875,7.325 L32,7.4 L32,7.4 Z M32,16.595 C23.4875,16.595 16.595,23.495 16.595,32 C16.595,40.5125 23.495,47.405 32,47.405 C40.5125,47.405 47.405,40.505 47.405,32 C47.405,23.4875 40.505,16.595 32,16.595 Z M32,42 C26.475,42 22,37.525 22,32 C22,26.475 26.475,22 32,22 C37.525,22 42,26.475 42,32 C42,37.525 37.525,42 32,42 Z M51.615,15.9875 C51.615,17.975 50,19.5875 48.015,19.5875 C46.0275,19.5875 44.415,17.9725 44.415,15.9875 C44.415,14.0025 46.03,12.39 48.015,12.39 C49.9975,12.3875 51.615,14.0025 51.615,15.9875 Z" id="Shape"></path>
        </g>
    </g>
</svg>