<?xml version="1.0" encoding="UTF-8"?>
<svg width="64px" height="64px" viewBox="0 0 64 64" version="1.1" xmlns="http://www.w3.org/2000/svg" xmlns:xlink="http://www.w3.org/1999/xlink">
    <!-- Generator: Sketch 47.1 (45422) - http://www.bohemiancoding.com/sketch -->
    <title>linkedin</title>
    <desc>Created with Sketch.</desc>
    <defs></defs>
    <g id="Page-1" stroke="none" stroke-width="1" fill="none" fill-rule="evenodd">
        <g id="linkedin" fill-rule="nonzero" fill="#000000">
            <path d="M53.1175,53.13 L44.2325,53.13 L44.2325,39.2075 C44.2325,35.8875 44.165,31.615 39.6025,31.615 C34.97,31.615 34.2625,35.2275 34.2625,38.9625 L34.2625,53.13 L25.3775,53.13 L25.3775,24.5 L33.9125,24.5 L33.9125,28.4025 L34.0275,28.4025 C35.22,26.1525 38.12,23.7775 42.4525,23.7775 C51.455,23.7775 53.12,29.7025 53.12,37.415 L53.12,53.13 L53.1175,53.13 Z M15.3425,20.5825 C12.4825,20.5825 10.185,18.2675 10.185,15.42 C10.185,12.575 12.485,10.2625 15.3425,10.2625 C18.1925,10.2625 20.5025,12.575 20.5025,15.42 C20.5025,18.2675 18.19,20.5825 15.3425,20.5825 Z M19.7975,53.13 L10.8875,53.13 L10.8875,24.5 L19.7975,24.5 L19.7975,53.13 Z M57.5625,2 L6.4275,2 C3.98,2 2,3.935 2,6.3225 L2,57.6775 C2,60.0675 3.98,62 6.4275,62 L57.555,62 C60,62 62,60.0675 62,57.6775 L62,6.3225 C62,3.935 60,2 57.555,2 L57.5625,2 Z" id="Shape"></path>
        </g>
    </g>
</svg>