<?xml version="1.0" encoding="UTF-8"?>
<svg width="640px" height="64px" viewBox="0 0 640 64" version="1.1" xmlns="http://www.w3.org/2000/svg" xmlns:xlink="http://www.w3.org/1999/xlink">
    <!-- Generator: Sketch 51.3 (57544) - http://www.bohemiancoding.com/sketch -->
    <title>quote-roof</title>
    <desc>Created with Sketch.</desc>
    <defs></defs>
    <g id="quote-roof" stroke="none" stroke-width="1" fill="none" fill-rule="evenodd">
        <path d="M291,14 L317,14 L317,34 C317,45.1082357 310.333333,54.441569 297,62 L292,52 C300,47.9026693 304,43.2360026 304,38 L291,38 L291,14 Z" id="Path-Copy" fill="#000000"></path>
        <polygon id="Combined-Shape" fill="#000000" points="0 25 272 25 272 34 9.51239087e-13 34"></polygon>
        <polygon id="Combined-Shape-Copy" fill="#000000" points="368 25 640 25 640 34 368 34"></polygon>
        <path d="M323,14 L349,14 L349,34 C349,45.1082357 342.333333,54.441569 329,62 L324,52 C332,47.9026693 336,43.2360026 336,38 L323,38 L323,14 Z" id="Path-Copy-2" fill="#000000"></path>
    </g>
</svg>