<?xml version="1.0" encoding="UTF-8"?>
<svg width="64px" height="64px" viewBox="0 0 64 64" version="1.1" xmlns="http://www.w3.org/2000/svg" xmlns:xlink="http://www.w3.org/1999/xlink">
    <title>search</title>
    <defs></defs>
    <g id="search" stroke="none" stroke-width="1" fill="none" fill-rule="evenodd">
        <path d="M27,50 C14.2974508,50 4,39.7025492 4,27 C4,14.2974508 14.2974508,4 27,4 C39.7025492,4 50,14.2974508 50,27 C50,39.7025492 39.7025492,50 27,50 Z M27,42 C35.2842712,42 42,35.2842712 42,27 C42,18.7157288 35.2842712,12 27,12 C18.7157288,12 12,18.7157288 12,27 C12,35.2842712 18.7157288,42 27,42 Z" id="Combined-Shape" fill="#000000"></path>
        <polygon id="Rectangle" fill="#000000" points="38 44 44 38 62 56 56 62"></polygon>
    </g>
</svg>