<?xml version="1.0" encoding="UTF-8"?>
<svg width="64px" height="64px" viewBox="0 0 64 64" version="1.1" xmlns="http://www.w3.org/2000/svg" xmlns:xlink="http://www.w3.org/1999/xlink">
    <!-- Generator: Sketch 47.1 (45422) - http://www.bohemiancoding.com/sketch -->
    <title>soundcloud</title>
    <desc>Created with Sketch.</desc>
    <defs></defs>
    <g id="Page-1" stroke="none" stroke-width="1" fill="none" fill-rule="evenodd">
        <g id="soundcloud" fill-rule="nonzero" fill="#000000">
            <path d="M3.13355797,29.5450427 C2.99754822,29.5450427 2.88287334,29.6677182 2.86420533,29.8117285 L2.24282745,35.5561403 L2.86420533,41.1698761 C2.88287334,41.3245538 2.99754822,41.4312281 3.13355797,41.4312281 C3.26690087,41.4312281 3.37357518,41.3245538 3.3975769,41.1698761 L4.07762565,35.5561403 L3.35757403,29.8117285 C3.35757403,29.6597176 3.23756543,29.5450427 3.11755683,29.5450427 L3.13355797,29.5450427 Z M0.720051619,31.753201 C0.560040148,31.753201 0.477367555,31.8518748 0.442698403,32.0038856 L0,35.5561403 L0.440031545,39.0443904 C0.440031545,39.1910676 0.560040148,39.295075 0.680048752,39.295075 C0.800057355,39.295075 0.9173991,39.1750664 0.957401968,39.0177218 L1.51744212,35.5001363 L0.957401968,31.9425479 C0.957401968,31.7798696 0.840060223,31.7025307 0.717384762,31.7025307 L0.720051619,31.753201 Z M5.59773463,28.4249624 C5.4350563,28.4249624 5.27771168,28.544971 5.27771168,28.7023156 L4.71767154,35.5374723 L5.31771455,42.0926089 C5.31771455,42.2526204 5.43772316,42.4126318 5.63507064,42.4126318 C5.79774896,42.4126318 5.91509071,42.2499535 5.95776044,42.0926089 L6.63514233,35.4948026 L5.95776044,28.6996488 C5.91509071,28.5396373 5.79508211,28.3796258 5.63507064,28.3796258 L5.59773463,28.4249624 Z M8.1552513,28.1422755 C7.95523696,28.1422755 7.79522549,28.302287 7.75522263,28.5023013 L7.24051906,35.542806 L7.80055921,42.3272924 C7.84322894,42.5326404 8.00057355,42.6953188 8.19792103,42.6953188 C8.39793537,42.6953188 8.55794684,42.5326404 8.59794971,42.2952901 L9.23799559,35.542806 L8.59794971,28.5476379 C8.59794971,28.3476235 8.43793824,28.1876121 8.2379239,28.1876121 L8.1552513,28.1422755 L8.1552513,28.1422755 Z M11.2354721,29.1023443 C11.2221378,28.8623271 11.0354578,28.7049825 10.8114417,28.7049825 C10.5714245,28.7049825 10.3900782,28.864994 10.374077,29.1023443 L9.79536888,35.5828089 L10.3287405,42.4179656 C10.3287405,42.6579828 10.5287548,42.8366622 10.7527708,42.8366622 C10.9501183,42.8366622 11.1474658,42.6553159 11.1474658,42.4152987 L11.7528425,35.580142 L11.1474658,29.0623414 L11.2354721,29.1023443 L11.2354721,29.1023443 Z M13.3929601,24.5446842 C13.1236075,24.5446842 12.9129257,24.7847014 12.9129257,25.0273855 L12.3528856,35.580142 L12.851588,42.4152987 C12.851588,42.6553159 13.0649366,42.8526634 13.3316224,42.8526634 C13.582307,42.8526634 13.7956557,42.6126462 13.8116568,42.372629 L14.3690301,35.5374723 L13.8116568,24.9447129 C13.7903219,24.6673597 13.5769733,24.4646785 13.3316224,24.4646785 L13.3929601,24.5446842 Z M15.8891391,22.0271704 C15.609119,22.0271704 15.3691018,22.2671876 15.3477669,22.5445409 L14.8677325,35.5374723 L15.3077641,42.3326261 C15.3077641,42.652649 15.5477813,42.8899994 15.8278013,42.8899994 C16.1051546,42.8899994 16.3451718,42.652649 16.3878415,42.3326261 L16.902545,35.5374723 L16.3905083,22.5872106 C16.3478386,22.2671876 16.1104883,22.0271704 15.8304682,22.0271704 L15.8891391,22.0271704 Z M18.4679906,20.8297513 C18.1453008,20.8297513 17.9052836,21.0671016 17.8679476,21.3871245 L17.427916,35.4547997 L17.8679476,42.1752815 C17.9052836,42.4926376 18.1453008,42.7753245 18.4679906,42.7753245 C18.7853467,42.7753245 19.0680336,42.4953044 19.0680336,42.1752815 L19.5880709,35.4547997 L19.0653668,21.3871245 C19.0653668,21.0671016 18.7853467,20.7870815 18.4653237,20.7870815 L18.4679906,20.8297513 Z M21.7855618,20.9070901 C21.7855618,20.5470643 21.5055417,20.2670443 21.1455159,20.2670443 C20.8281598,20.2670443 20.50547,20.5470643 20.50547,20.9070901 L20.1081082,35.4174637 L20.50547,42.0926089 C20.5481397,42.4526347 20.8281598,42.7326548 21.1881856,42.7326548 C21.5482114,42.7326548 21.8282315,42.4526347 21.8282315,42.0926089 L22.2655962,35.4174637 L21.8282315,20.8670873 L21.7855618,20.9070901 Z M23.7830383,20.5497312 C23.4230125,20.5497312 23.1029895,20.8670873 23.1029895,21.2271131 L22.7029609,35.4201306 L23.1029895,42.01527 C23.1029895,42.4152987 23.4230125,42.6953188 23.7830383,42.6953188 C24.1430641,42.6953188 24.4630871,42.3752958 24.4630871,41.9752671 L24.8631157,35.3774608 L24.4230842,21.2244462 C24.4230842,20.8297513 24.1030612,20.5043946 23.7003657,20.5043946 L23.7830383,20.5497312 Z M26.3805578,20.947093 C25.9431932,20.947093 25.6231702,21.3071188 25.6231702,21.7071475 L25.3484839,35.4227974 L25.7085097,42.0206037 C25.7085097,42.4179656 26.0258658,42.7593234 26.4658973,42.7593234 C26.8632591,42.7593234 27.1886158,42.4393004 27.2232849,41.9992689 L27.5459747,35.4841351 L27.1859489,21.8511578 C27.1539466,21.4137931 26.8259231,21.0911033 26.4258944,21.0911033 L26.3805578,20.947093 Z M29.5834541,18.5709227 C29.4634455,18.4935838 29.303434,18.4535809 29.1434226,18.4535809 C28.9834111,18.4535809 28.8260665,18.4935838 28.703391,18.5709227 C28.4633738,18.714933 28.3060292,18.9709513 28.3060292,19.2509714 L28.3060292,19.4136497 L28.028676,35.542806 L28.3353647,42.0739409 L28.3353647,42.0952758 C28.3566995,42.2552872 28.4153704,42.4553016 28.5327121,42.5753102 C28.6873899,42.7379885 28.9114059,42.8526634 29.1567569,42.8526634 C29.3701055,42.8526634 29.5781204,42.7353216 29.7141302,42.6126462 C29.8688079,42.4526347 29.9568142,42.2526204 29.9568142,42.0126032 L29.9968171,41.3725573 L30.3088395,35.4974694 L29.9488136,19.2669726 C29.9488136,18.9896193 29.7861353,18.752269 29.5887878,18.6295935 L29.5834541,18.5709227 L29.5834541,18.5709227 Z M32.2663131,17.1121514 C32.1463045,16.9921428 32.0262959,16.9494731 31.8662844,16.9494731 C31.668937,16.9494731 31.4689226,16.9921428 31.3089112,17.1121514 C31.1088968,17.2748297 30.9915551,17.5121801 30.9915551,17.7521973 L30.9915551,17.8295362 L30.6261955,35.4547997 L30.8288767,38.695032 L30.9915551,41.8552585 C30.9915551,42.2926232 31.38625,42.6926519 31.8662844,42.6926519 C32.3489857,42.6926519 32.7463475,42.2926232 32.7463475,41.8152557 L33.1463762,35.3774608 L32.7463475,17.6775253 C32.7463475,17.3575023 32.5490001,17.0881497 32.306316,16.9388057 L32.2663131,17.1121514 Z M56.132024,27.0115278 C55.0519466,27.0115278 54.011872,27.2408775 53.0944729,27.6302388 C52.454427,20.552398 46.5340026,15 39.2588144,15 C37.5013551,15 35.7785649,15.3600258 34.2211199,15.957402 C33.6210769,16.1974192 33.5010683,16.4374364 33.4610654,16.9148039 L33.4610654,41.8979283 C33.5037352,42.3779627 33.8610941,42.7779914 34.3411285,42.8179942 L56.16936,42.8179942 C60.4870029,42.860664 64.0045884,39.3830813 64.0045884,35.0254356 C64.0045884,30.6677899 60.4870029,27.1528712 56.16936,27.1528712 L56.132024,27.0115278 Z" id="Shape"></path>
        </g>
    </g>
</svg>