<?xml version="1.0" encoding="UTF-8"?>
<svg width="64px" height="64px" viewBox="0 0 64 64" version="1.1" xmlns="http://www.w3.org/2000/svg" xmlns:xlink="http://www.w3.org/1999/xlink">
    <!-- Generator: Sketch 63.1 (92452) - https://sketch.com -->
    <title>sound</title>
    <desc>Created with Sketch.</desc>
    <g id="sound" stroke="none" stroke-width="1" fill="none" fill-rule="evenodd">
        <polygon id="Path" fill="#000000" points="30.3157895 5 33.6842105 5 33.6842105 58.890625 30.3157895 58.890625 16.8421053 45.4169408 0 45.4169408 0 18.4695724 16.8421053 18.4695724"></polygon>
        <path d="M50.5263158,31.9432566 C50.5263158,35.6639117 49.0182223,39.0323328 46.5799651,41.4705901 L41.8162983,36.7069233 C43.0354269,35.4877947 43.7894737,33.8035842 43.7894737,31.9432566 C43.7894737,30.082929 43.0354269,28.3987185 41.8162983,27.1795898 L46.5799651,22.4159231 C49.0182223,24.8541804 50.5263158,28.2226014 50.5263158,31.9432566 Z" id="Combined-Shape" fill="#000000"></path>
        <path d="M64,31.9432566 C64,39.3845669 60.9838131,46.121409 56.1072985,50.9979235 L51.3436318,46.2342568 C55.0010177,42.5768709 57.2631579,37.5242393 57.2631579,31.9432566 C57.2631579,26.3622738 55.0010177,21.3096423 51.3436318,17.6522564 L56.1072985,12.8885896 C60.9838131,17.7651042 64,24.5019463 64,31.9432566 Z" id="Combined-Shape" fill="#000000"></path>
    </g>
</svg>