<?xml version="1.0" encoding="UTF-8"?>
<svg width="64px" height="64px" viewBox="0 0 64 64" version="1.1" xmlns="http://www.w3.org/2000/svg" xmlns:xlink="http://www.w3.org/1999/xlink">
  <polygon fill="black" points="31 16 33 16 33 47.9975586 31 47.9975586 23 39.9975586 13 39.9975586 13 23.9975586 23 23.9975586"></polygon>
  <path d="M43,31.9975586 C43,34.2061893 42.1049815,36.2057772 40.6578535,37.6534134 L37.8284271,34.8259857 C38.5522847,34.1021281 39,33.1021281 39,31.9975586 C39,30.8932446 38.5524919,29.8934517 37.8289294,29.1696338 L40.6568542,26.3407043 C42.1045695,27.7884196 43,29.7884196 43,31.9975586 Z" fill="black"></path>
  <path d="M51,31.9975586 C51,36.4158366 49.209139,40.4158366 46.3137085,43.3112671 L43.4852814,40.48284 C45.6568542,38.3112671 47,35.3112671 47,31.9975586 C47,28.6841037 45.6570599,25.6843093 43.48578,23.5127759 L46.3137085,20.6838501 C49.209139,23.5792806 51,27.5792806 51,31.9975586 Z" fill="black"></path>
</svg>