<?xml version="1.0" encoding="UTF-8"?>
<svg width="64px" height="64px" viewBox="0 0 64 64" version="1.1" xmlns="http://www.w3.org/2000/svg" xmlns:xlink="http://www.w3.org/1999/xlink">
    <!-- Generator: Sketch 47.1 (45422) - http://www.bohemiancoding.com/sketch -->
    <title>twitter</title>
    <desc>Created with Sketch.</desc>
    <defs></defs>
    <g id="Page-1" stroke="none" stroke-width="1" fill="none" fill-rule="evenodd">
        <g id="twitter" fill-rule="nonzero" fill="#000000">
            <path d="M63.8789712,13.1948255 C61.5189107,14.2321854 58.9988461,14.9388702 56.3454447,15.2615452 C59.049514,13.63217 61.1295674,11.0641042 62.1135926,8.00002564 C59.5775276,9.48006359 56.7667888,10.5574245 53.7747121,11.1574399 C51.3853175,8.60004102 47.9798969,7 44.1984666,7 C36.9529475,7 31.0781302,12.8748173 31.0781302,20.1123362 C31.0781302,21.1523629 31.1981333,22.1523885 31.4168055,23.1097464 C20.5098592,22.5950665 10.8429447,17.3575989 4.37344547,9.44006256 C3.23474961,11.3654453 2.59739993,13.602836 2.59739993,16.0402318 C2.59739993,20.6003487 4.91745942,24.6084515 8.4322162,26.9631785 C6.28016102,26.8938434 4.25610913,26.3018282 2.49073053,25.3204697 L2.49073053,25.4831406 C2.49073053,31.8433036 7.00551295,37.1474396 13.013667,38.3554706 C11.9123054,38.6514782 10.749609,38.8114823 9.55757839,38.8114823 C8.72022359,38.8114823 7.91753634,38.7314803 7.11484909,38.5821431 C8.7975589,43.7902766 13.6350163,47.5877073 19.3924972,47.6943767 C14.9123824,51.2118003 9.23490345,53.307854 3.12008,53.307854 C2.08005333,53.307854 1.0426934,53.2465191 0,53.1291828 C5.83748301,56.8466114 12.7149927,59.0200005 20.1525167,59.0200005 C44.2971358,59.0200005 57.4841406,39.0301546 57.4841406,21.7230442 C57.4841406,21.1656965 57.4841406,20.6030154 57.4441395,20.0430011 C60.0068719,18.2056206 62.2442626,15.8828944 64.0043077,13.2481602 L63.8789712,13.1948255 Z" id="Shape"></path>
        </g>
    </g>
</svg>