<?xml version="1.0" encoding="UTF-8"?>
<svg width="64px" height="64px" viewBox="0 0 64 64" version="1.1" xmlns="http://www.w3.org/2000/svg" xmlns:xlink="http://www.w3.org/1999/xlink">
    <!-- Generator: Sketch 47.1 (45422) - http://www.bohemiancoding.com/sketch -->
    <title>youtube</title>
    <desc>Created with Sketch.</desc>
    <defs></defs>
    <g id="Page-1" stroke="none" stroke-width="1" fill="none" fill-rule="evenodd">
        <g id="youtube" fill-rule="nonzero" fill="#000000">
            <path d="M62.6657399,16.9068113 C61.9112796,14.2034771 59.7988373,12.0910349 57.0955032,11.3365745 C52.1068333,10.0000378 32.0294377,10.0000378 32.0294377,10.0000378 C32.0294377,10.0000378 12.0027291,9.97336047 6.96337218,11.3365745 C4.26003801,12.0910349 2.14759576,14.2034771 1.39313541,16.9068113 C0.447477252,22.0142237 -0.0187367486,27.1988449 0.000576211155,32.3930299 C-0.0150857283,37.5676151 0.45111299,42.7324181 1.39313541,47.8205583 C2.14759576,50.5238925 4.26003801,52.6363348 6.96337218,53.3907951 C11.9467066,54.7299995 32.0294377,54.7299995 32.0294377,54.7299995 C32.0294377,54.7299995 52.0534785,54.7299995 57.0955032,53.3907951 C59.7988373,52.6363348 61.9112796,50.5238925 62.6657399,47.8205583 C63.5880816,42.7305752 64.0346308,37.5657871 63.9996089,32.3930299 C64.0382815,27.2006798 63.5917177,22.0160736 62.6657399,16.9068113 L62.6657399,16.9068113 Z M25.6215312,41.9728768 L25.6215312,22.783838 L42.3322415,32.3930299 L25.6215312,41.9728768 Z" id="Shape"></path>
        </g>
    </g>
</svg>